<?xml version="1.0" standalone="no"?>
<!DOCTYPE svg PUBLIC "-//W3C//DTD SVG 20010904//EN"
 "http://www.w3.org/TR/2001/REC-SVG-20010904/DTD/svg10.dtd">
<svg version="1.0" xmlns="http://www.w3.org/2000/svg"
 width="452.000000pt" height="452.000000pt" viewBox="0 0 452.000000 452.000000"
 preserveAspectRatio="xMidYMid meet">

<g transform="translate(0.000000,452.000000) scale(0.100000,-0.100000)"
fill="#000000" stroke="none">
<path d="M2025 4508 c-397 -40 -823 -211 -1143 -458 -853 -659 -1124 -1828
-647 -2788 231 -465 579 -809 1049 -1038 837 -408 1854 -247 2536 403 442 420
700 1023 700 1633 0 521 -193 1050 -528 1450 -480 573 -1220 873 -1967 798z
m1720 -1140 c0 -9 -83 -92 -185 -184 -102 -92 -311 -285 -465 -428 -669 -623
-705 -655 -760 -676 -51 -19 -119 -12 -163 18 -57 38 -253 214 -657 591 -192
180 -426 396 -520 480 -93 85 -179 162 -189 172 -11 10 -16 24 -13 33 6 15
142 16 1479 14 1369 -3 1473 -4 1473 -20z m-3049 -121 c134 -121 733 -676 849
-785 l99 -94 -45 -42 c-24 -22 -184 -169 -354 -326 -170 -157 -333 -307 -361
-335 -28 -27 -67 -63 -85 -79 -19 -17 -82 -74 -140 -128 -58 -54 -109 -98
-113 -98 -3 0 -5 431 -4 958 3 1010 3 1012 47 1012 9 0 57 -37 107 -83z m3281
56 c17 -25 18 -88 21 -986 1 -606 -1 -958 -7 -955 -9 3 -166 146 -347 317 -44
42 -227 213 -407 380 -180 168 -327 308 -327 312 0 4 131 128 292 276 161 147
393 361 517 476 124 114 228 207 233 207 4 0 16 -12 25 -27z m-2081 -1159
c237 -214 254 -223 380 -224 70 0 89 4 140 30 32 16 102 68 154 116 136 124
209 184 223 184 15 0 83 -62 670 -608 256 -239 468 -441 472 -450 3 -9 -3 -24
-15 -36 l-21 -21 -1627 0 c-1555 0 -1629 1 -1656 18 -15 10 -26 24 -24 31 2 7
71 75 153 152 912 849 994 924 1009 924 7 0 70 -52 142 -116z"/>
</g>
</svg>
