<?xml version="1.0" standalone="no"?>
<!DOCTYPE svg PUBLIC "-//W3C//DTD SVG 20010904//EN"
 "http://www.w3.org/TR/2001/REC-SVG-20010904/DTD/svg10.dtd">
<svg version="1.0" xmlns="http://www.w3.org/2000/svg"
 width="365.000000pt" height="365.000000pt" viewBox="0 0 365.000000 365.000000"
 preserveAspectRatio="xMidYMid meet">

<g transform="translate(0.000000,365.000000) scale(0.100000,-0.100000)"
fill="#000000" stroke="none">
<path d="M1695 3644 c-355 -38 -629 -133 -896 -313 -398 -267 -679 -700 -771
-1187 -32 -171 -32 -467 0 -638 108 -573 467 -1053 983 -1311 113 -57 335
-139 350 -129 5 3 9 89 9 192 l0 187 -187 0 c-188 0 -188 0 -243 29 -30 16
-57 32 -60 36 -3 4 -20 15 -38 24 -18 9 -37 27 -41 39 -5 13 -16 29 -26 37
-19 16 -65 103 -65 123 0 34 -158 217 -187 217 -5 0 -21 13 -36 28 -70 73 5
106 138 61 85 -28 157 -98 253 -244 13 -19 110 -95 122 -95 6 0 34 -7 61 -16
54 -18 175 -15 234 5 17 6 42 13 58 16 24 5 27 10 27 44 0 41 66 182 94 203
11 7 5 9 -115 32 -41 8 -95 22 -120 30 -24 9 -52 16 -62 16 -35 0 -192 84
-259 139 -65 53 -126 124 -174 206 -26 46 -77 202 -95 297 -17 84 -17 311 0
368 32 115 75 209 125 275 l53 70 -13 39 c-20 54 -19 295 1 361 28 95 32 98
95 91 30 -3 76 -10 101 -14 53 -10 243 -99 296 -139 43 -33 75 -33 225 -3 191
39 473 37 638 -5 96 -25 154 -22 194 9 95 72 321 156 422 156 34 0 41 -10 71
-100 24 -73 25 -294 1 -355 -15 -39 -15 -42 6 -67 80 -99 123 -188 157 -320
19 -74 17 -283 -4 -383 -50 -236 -122 -368 -273 -494 -34 -28 -69 -51 -77 -51
-9 0 -19 -5 -22 -10 -9 -14 -130 -70 -152 -70 -10 0 -45 -9 -78 -19 -33 -10
-96 -25 -140 -32 -44 -7 -81 -14 -83 -15 -2 -1 15 -30 37 -66 69 -109 71 -122
71 -495 0 -279 2 -333 14 -333 31 0 225 75 326 125 515 258 874 738 982 1311
32 171 32 467 0 638 -92 487 -372 919 -772 1188 -214 144 -472 249 -712 288
-118 20 -360 33 -443 24z"/>
<path d="M624 999 c-10 -16 18 -40 35 -29 12 7 12 11 2 24 -16 19 -27 20 -37
5z"/>
<path d="M705 941 c-11 -19 5 -51 26 -51 24 0 25 22 0 44 -13 11 -21 14 -26 7z"/>
<path d="M773 834 c-7 -20 8 -48 29 -52 22 -4 29 22 12 47 -18 25 -32 27 -41
5z"/>
<path d="M860 722 c0 -10 5 -23 12 -30 18 -18 48 -15 48 6 0 10 -5 23 -12 30
-18 18 -48 15 -48 -6z"/>
<path d="M984 645 c-9 -23 5 -35 42 -35 37 0 39 2 24 31 -13 22 -58 26 -66 4z"/>
<path d="M1289 634 c-17 -21 6 -37 41 -28 32 7 34 10 27 29 -8 20 -51 19 -68
-1z"/>
<path d="M1134 619 c-3 -6 1 -18 9 -26 21 -21 67 -9 67 17 0 16 -7 20 -34 20
-19 0 -38 -5 -42 -11z"/>
</g>
</svg>
