<?xml version="1.0" standalone="no"?>
<!DOCTYPE svg PUBLIC "-//W3C//DTD SVG 20010904//EN"
 "http://www.w3.org/TR/2001/REC-SVG-20010904/DTD/svg10.dtd">
<svg version="1.0" xmlns="http://www.w3.org/2000/svg"
 width="980.000000pt" height="980.000000pt" viewBox="0 0 980.000000 980.000000"
 preserveAspectRatio="xMidYMid meet">

<g transform="translate(0.000000,980.000000) scale(0.100000,-0.100000)"
fill="#000000" stroke="none">
<path d="M4665 9794 c-901 -50 -1737 -326 -2480 -820 -1135 -755 -1900 -1944
-2120 -3297 -46 -282 -58 -450 -58 -777 0 -327 12 -495 58 -777 163 -1007 620
-1913 1333 -2645 396 -405 828 -718 1347 -973 539 -265 1070 -416 1690 -481
220 -23 710 -23 930 0 835 87 1573 350 2250 801 1136 757 1898 1942 2119 3292
45 273 60 472 59 793 0 317 -13 492 -59 770 -168 1039 -662 1990 -1412 2722
-808 787 -1826 1261 -2952 1373 -152 15 -568 26 -705 19z m575 -1759 c359 -57
692 -197 990 -418 52 -39 156 -132 231 -206 336 -337 536 -721 620 -1196 33
-186 34 -529 1 -719 -137 -790 -642 -1773 -1496 -2911 -235 -313 -664 -835
-686 -835 -22 0 -449 520 -686 835 -762 1014 -1258 1930 -1443 2661 -136 541
-98 1042 116 1519 107 239 252 446 452 645 364 363 783 568 1301 635 136 18
457 13 600 -10z"/>
<path d="M4778 6630 c-288 -52 -520 -242 -618 -505 -105 -283 -40 -596 168
-817 314 -333 835 -331 1148 4 247 265 283 657 87 961 -108 168 -262 283 -454
337 -83 23 -256 34 -331 20z"/>
</g>
</svg>
