<?xml version="1.0" standalone="no"?>
<!DOCTYPE svg PUBLIC "-//W3C//DTD SVG 20010904//EN"
 "http://www.w3.org/TR/2001/REC-SVG-20010904/DTD/svg10.dtd">
<svg version="1.0" xmlns="http://www.w3.org/2000/svg"
 width="288.000000pt" height="288.000000pt" viewBox="0 0 288.000000 288.000000"
 preserveAspectRatio="xMidYMid meet">

<g transform="translate(0.000000,288.000000) scale(0.100000,-0.100000)"
fill="#000000" stroke="none">
<path d="M1313 2869 c-1015 -100 -1606 -1163 -1152 -2071 189 -378 529 -648
952 -754 137 -34 400 -44 556 -20 114 17 304 77 402 126 195 98 376 248 503
415 149 197 228 376 277 630 23 115 17 407 -9 533 -118 550 -515 967 -1050
1101 -151 38 -341 54 -479 40z m-348 -503 c22 -35 174 -440 180 -482 8 -51 -3
-79 -70 -167 -30 -41 -55 -84 -55 -97 0 -33 98 -214 188 -349 42 -63 114 -154
162 -202 l85 -88 40 8 c22 5 70 16 107 26 40 10 81 15 101 11 25 -5 84 -51
230 -182 l197 -175 0 -44 c0 -39 -6 -50 -56 -104 -99 -108 -241 -201 -306
-201 -52 0 -297 145 -452 268 -101 80 -302 283 -375 380 -216 286 -348 596
-411 965 -25 147 -25 210 -2 249 51 88 325 229 405 210 10 -3 24 -14 32 -26z
m935 -181 c168 -115 308 -300 376 -496 30 -88 43 -211 24 -234 -15 -18 -73
-20 -88 -2 -6 6 -19 51 -31 99 -54 230 -181 418 -361 536 -89 58 -90 59 -90
97 0 45 29 67 73 54 18 -5 61 -29 97 -54z m-237 -326 c68 -45 157 -147 194
-222 37 -73 67 -189 58 -218 -14 -42 -94 -50 -110 -12 -4 10 -13 42 -21 71
-30 115 -105 220 -198 280 -23 15 -44 31 -48 37 -13 18 -9 58 9 77 24 26 63
22 116 -13z"/>
</g>
</svg>
