<?xml version="1.0" standalone="no"?>
<!DOCTYPE svg PUBLIC "-//W3C//DTD SVG 20010904//EN"
 "http://www.w3.org/TR/2001/REC-SVG-20010904/DTD/svg10.dtd">
<svg version="1.0" xmlns="http://www.w3.org/2000/svg"
 width="368.000000pt" height="368.000000pt" viewBox="0 0 368.000000 368.000000"
 preserveAspectRatio="xMidYMid meet">

<g transform="translate(0.000000,368.000000) scale(0.100000,-0.100000)"
fill="#000000" stroke="none">
<path d="M1605 3664 c-757 -102 -1363 -644 -1550 -1384 -207 -819 190 -1690
945 -2074 606 -309 1307 -266 1871 113 375 252 642 634 754 1081 187 739 -119
1534 -754 1961 -375 252 -833 362 -1266 303z m1133 -1094 c39 -37 38 -79 -6
-295 -22 -110 -50 -243 -62 -295 -11 -52 -30 -139 -40 -194 -11 -54 -22 -102
-25 -106 -3 -4 -14 -52 -25 -106 -10 -55 -28 -142 -40 -194 -11 -52 -30 -140
-41 -195 -12 -55 -25 -116 -29 -135 -28 -131 -53 -170 -108 -170 -54 1 -63 6
-370 237 -90 68 -169 123 -175 123 -7 0 -60 -49 -120 -109 -112 -113 -162
-149 -192 -137 -15 5 -17 15 -12 64 4 31 11 118 17 192 19 233 9 210 135 324
61 55 181 165 269 245 87 80 190 175 230 210 250 222 285 261 238 261 -10 0
-43 -17 -73 -38 -30 -20 -70 -47 -89 -58 -19 -12 -71 -44 -115 -71 -44 -28
-145 -91 -225 -140 -80 -50 -241 -152 -358 -227 -117 -75 -223 -142 -236 -147
-18 -9 -50 -3 -157 31 -74 22 -145 45 -159 50 -14 5 -65 21 -115 36 -49 14
-98 33 -107 42 -44 38 -5 91 93 130 60 23 284 108 399 152 199 75 308 117 455
175 88 35 196 77 240 93 318 121 617 236 655 252 62 25 121 25 148 0z"/>
</g>
</svg>
